# xmcd
#
# Track frame offsets:
#	150
#	14752
#	29330
#	42847
#	55930
#	69732
#	82922
#	101452
#	122957
#	134547
#	148797
#	170007
#	181040
#	193365
#	207787
#	224845
#	242382
#	258407
#	275862
#	290312
#	304852
#	319750
#
# Disc length: 4533 seconds
#
# Revision: 2
# Processed by: cddbd v1.5.2PL0 Copyright (c) Steve Scherf et al.
# Submitted via: EZCDAudioConverter 3.1.5.1
#
DISCID=5a11b316
DTITLE=Γιώργος Νταλάρας - Το Μουσικό Κουτί_Άσε με πάλι να σου πω... CD2
DYEAR=1997
DGENRE=enetxno
TTITLE0=Το Πρώτο Περιστέρι
TTITLE1=Για Πάρε Γύφτο Σφυρί Κι Αμόνι
TTITLE2=Ήταν Πέντε Ήταν Έξι
TTITLE3=Τώρα Που Θα Φύγεις
TTITLE4=Ναμουν Ο Μεγαλέξανδρος
TTITLE5=Το Πουκάμισο Το Θαλασσί
TTITLE6=Του Κάτω Κόσμου Τα Πουλιά
TTITLE7=Αναβάφτιση-Κουβέντα Μ Ένα Λουλούδι
TTITLE8=Εδώ Το Φώς
TTITLE9=Όλα καλά
TTITLE10=Μη Μου Θυμώνεις Μάτια Μου
TTITLE11=Στα Ψηλά Τα Παραθύρια
TTITLE12=Κάποιος Χτύπησε Την Πόρτα
TTITLE13=Πάγωσε Η Τσιμινιέρα
TTITLE14=Λιώνουν Τα Νιάτα Μας
TTITLE15=Κάτω Απ 'Την Κληματαριά
TTITLE16=Πρώτη Του Δεκέμβρη
TTITLE17=Στην Ανατολή Στη Δύση
TTITLE18=Τα Μάρμαρα Της Πόλης
TTITLE19=Στην Αλάνα
TTITLE20=Αθήνα
TTITLE21=Κόκκινο Τριαντάφυλλο
EXTD=
EXTT0=
EXTT1=
EXTT2=
EXTT3=
EXTT4=
EXTT5=
EXTT6=
EXTT7=
EXTT8=
EXTT9=
EXTT10=
EXTT11=
EXTT12=
EXTT13=
EXTT14=
EXTT15=
EXTT16=
EXTT17=
EXTT18=
EXTT19=
EXTT20=
EXTT21=
PLAYORDER=
